<?xml version="1.0" encoding="UTF-8" standalone="no"?>
<svg
   xmlns:dc="http://purl.org/dc/elements/1.1/"
   xmlns:cc="http://creativecommons.org/ns#"
   xmlns:rdf="http://www.w3.org/1999/02/22-rdf-syntax-ns#"
   xmlns:svg="http://www.w3.org/2000/svg"
   xmlns="http://www.w3.org/2000/svg"
   xmlns:sodipodi="http://sodipodi.sourceforge.net/DTD/sodipodi-0.dtd"
   xmlns:inkscape="http://www.inkscape.org/namespaces/inkscape"
   viewBox="0 0 138.42054 158.14518"
   width="921.03522"
   height="1052.6351"
   version="1.1"
   id="svg20"
   sodipodi:docname="bash-logo.svg"
   inkscape:version="1.0.1 (1.0.1+r74)">
  <metadata
     id="metadata24">
    <rdf:RDF>
      <cc:Work
         rdf:about="">
        <dc:format>image/svg+xml</dc:format>
        <dc:type
           rdf:resource="http://purl.org/dc/dcmitype/StillImage" />
        <dc:title>Asset 1</dc:title>
      </cc:Work>
    </rdf:RDF>
  </metadata>
  <sodipodi:namedview
     pagecolor="#ffffff"
     bordercolor="#666666"
     borderopacity="1"
     objecttolerance="10"
     gridtolerance="10"
     guidetolerance="10"
     inkscape:pageopacity="0"
     inkscape:pageshadow="2"
     inkscape:window-width="1366"
     inkscape:window-height="701"
     id="namedview22"
     showgrid="false"
     inkscape:zoom="0.2384"
     inkscape:cx="1383.1966"
     inkscape:cy="348.38923"
     inkscape:window-x="0"
     inkscape:window-y="0"
     inkscape:window-maximized="1"
     inkscape:current-layer="svg20" />
  <defs
     id="defs4">
    <style
       id="style2">.cls-1{fill:#fff}.cls-2{fill:#2f3a3e}.cls-3{fill:#3ab14a}</style>
  </defs>
  <title
     id="title6">Asset 1</title>
  <path
     class="cls-1"
     d="M 128.79027,32.278404 78.850268,2.6284036 a 18.81,18.81 0 0 0 -19.27,0 L 9.6302683,32.278404 a 19.92,19.92 0 0 0 -9.62999996901,17.16 V 108.7284 A 19.92,19.92 0 0 0 9.6302683,125.8784 l 49.9399997,29.64 a 18.82,18.82 0 0 0 19.27,0 l 49.940002,-29.64 a 19.92,19.92 0 0 0 9.64,-17.16 V 49.438404 a 19.92,19.92 0 0 0 -9.63,-17.16 z"
     id="path8" />
  <path
     class="cls-2"
     d="M 128.79027,32.278404 78.850268,2.6284036 a 18.81,18.81 0 0 0 -19.27,0 L 9.6302683,32.278404 a 19.92,19.92 0 0 0 -9.62999996901,17.16 V 108.7284 A 19.92,19.92 0 0 0 9.6302683,125.8784 l 49.9399997,29.64 a 18.82,18.82 0 0 0 19.27,0 l 49.940002,-29.64 a 19.92,19.92 0 0 0 9.64,-17.16 V 49.438404 a 19.92,19.92 0 0 0 -9.63,-17.16 z M 61.320268,152.4884 l -49.94,-29.64 a 16.44,16.44 0 0 1 -7.9199997,-14.12 V 49.438404 a 16.43,16.43 0 0 1 7.9199997,-14.12 l 49.94,-29.6500004 a 15.4,15.4 0 0 1 15.78,0 L 127.00027,35.318404 a 16.33,16.33 0 0 1 7.67,11.42 c -1.66,-3.53 -5.39,-4.5 -9.74,-2 l -47.210002,29.24 c -5.89,3.43 -10.23,7.3 -10.24,14.4 V 146.5984 c 0,4.25 1.71,7 4.35,7.81 a 15.3,15.3 0 0 1 -2.62,0.25 15.47,15.47 0 0 1 -7.89,-2.17 z"
     id="path10" />
  <path
     class="cls-3"
     d="m 115.70027,114.4584 -12.44,7.44 a 0.91,0.91 0 0 0 -0.57,0.81 v 3.27 c 0,0.4 0.27,0.56 0.6,0.37 l 12.63,-7.68 a 1,1 0 0 0 0.38,-1 v -2.87 c -0.01,-0.37 -0.3,-0.53 -0.6,-0.34 z"
     id="path12" />
  <path
     class="cls-1"
     d="m 89.220268,87.068404 c 0.4,-0.2 0.73,0 0.74,0.57 l 0.04,4.34 a 8,8 0 0 1 4.78,-0.58 c 0.31,0.08 0.44,0.5 0.32,1 l -0.95,3.81 a 1.64,1.64 0 0 1 -0.43,0.76 1,1 0 0 1 -0.25,0.18 0.57,0.57 0 0 1 -0.37,0.06 6.34,6.34 0 0 0 -4.61,0.74 5.79,5.79 0 0 0 -3.41,5.129996 c 0,2 1,2.55 4.49,2.61 4.61,0.08 6.61,2.09 6.66,6.74 a 16.53,16.53 0 0 1 -6.12,12.47 l 0.08,4.26 a 1.56,1.56 0 0 1 -0.73,1.3 l -2.52,1.45 c -0.4,0.2 -0.73,0 -0.74,-0.56 v -4.19 c -2.16,0.9 -4.35,1.11 -5.75,0.55 -0.26,-0.1 -0.38,-0.49 -0.27,-0.94 l 0.91,-3.85 a 1.61,1.61 0 0 1 0.45,-0.8 1,1 0 0 1 0.24,-0.17 0.5,0.5 0 0 1 0.41,0 7,7 0 0 0 5.29,-0.67 6.92,6.92 0 0 0 3.91,-6 c 0,-2.16 -1.19,-3.06 -4,-3.08 -3.63,0 -7,-0.7 -7.07,-6 a 15.5,15.5 0 0 1 5.86,-11.859996 l -0.18,-4.36 a 1.55,1.55 0 0 1 0.73,-1.32 z"
     id="path14" />
</svg>
