<?xml version="1.0" encoding="UTF-8" standalone="no"?>
<svg
   xmlns:dc="http://purl.org/dc/elements/1.1/"
   xmlns:cc="http://creativecommons.org/ns#"
   xmlns:rdf="http://www.w3.org/1999/02/22-rdf-syntax-ns#"
   xmlns:svg="http://www.w3.org/2000/svg"
   xmlns="http://www.w3.org/2000/svg"
   xmlns:sodipodi="http://sodipodi.sourceforge.net/DTD/sodipodi-0.dtd"
   xmlns:inkscape="http://www.inkscape.org/namespaces/inkscape"
   height="1991.5234"
   viewBox="0 0 512 407.76642"
   width="2500"
   version="1.1"
   id="svg4"
   sodipodi:docname="bootstrap-logo.svg"
   inkscape:version="1.0.1 (1.0.1+r74)">
  <metadata
     id="metadata10">
    <rdf:RDF>
      <cc:Work
         rdf:about="">
        <dc:format>image/svg+xml</dc:format>
        <dc:type
           rdf:resource="http://purl.org/dc/dcmitype/StillImage" />
        <dc:title></dc:title>
      </cc:Work>
    </rdf:RDF>
  </metadata>
  <defs
     id="defs8" />
  <sodipodi:namedview
     pagecolor="#ffffff"
     bordercolor="#666666"
     borderopacity="1"
     objecttolerance="10"
     gridtolerance="10"
     guidetolerance="10"
     inkscape:pageopacity="0"
     inkscape:pageshadow="2"
     inkscape:window-width="1366"
     inkscape:window-height="701"
     id="namedview6"
     showgrid="false"
     inkscape:zoom="0.18174632"
     inkscape:cx="1260.4039"
     inkscape:cy="1087.9311"
     inkscape:window-x="0"
     inkscape:window-y="0"
     inkscape:window-maximized="1"
     inkscape:current-layer="svg4" />
  <path
     d="m 106.344,-0.0488 c -29.214,0 -50.831,25.57 -49.863,53.3 0.929,26.641 -0.278,61.145 -8.964,89.283 C 38.8,170.7512 24.068,188.6322 0,190.9272 v 25.912 c 24.068,2.3 38.8,20.172 47.516,48.393 8.687,28.138 9.893,62.642 8.964,89.283 -0.968,27.726 20.649,53.3 49.868,53.3 h 299.347 c 29.214,0 50.827,-25.57 49.859,-53.3 -0.929,-26.641 0.278,-61.145 8.964,-89.283 8.717,-28.221 23.413,-46.1 47.482,-48.393 v -25.912 c -24.068,-2.3 -38.764,-20.172 -47.482,-48.393 -8.687,-28.134 -9.893,-62.642 -8.964,-89.283 0.968,-27.726 -20.645,-53.3 -49.859,-53.3 H 106.34 Z m 240.775,251.067 c 0,38.183 -28.481,61.34 -75.746,61.34 h -80.458 a 8.678,8.678 0 0 1 -8.678,-8.678 v -199.593 a 8.678,8.678 0 0 1 8.678,-8.678 h 80 c 39.411,0 65.276,21.348 65.276,54.124 0,23.005 -17.4,43.6 -39.567,47.208 v 1.2 c 30.176,3.31 50.495,24.21 50.495,53.077 z m -84.519,-128.1 h -45.876 v 64.8 h 38.639 c 29.87,0 46.34,-12.028 46.34,-33.527 -0.003,-20.148 -14.163,-31.273 -39.103,-31.273 z m -45.876,90.511 v 71.411 h 47.564 c 31.1,0 47.573,-12.479 47.573,-35.931 0,-23.452 -16.935,-35.484 -49.573,-35.484 h -45.564 z"
     fill="#7952b3"
     fill-rule="evenodd"
     id="path2" />
</svg>
