<svg xmlns="http://www.w3.org/2000/svg" xmlns:svg="http://www.w3.org/2000/svg" id="svg16" width="1771" height="2008.4" enable-background="new 0 0 1771 2499.8" version="1.1" viewBox="0 0 1771 2008.4"><metadata id="metadata22"/><path id="path4" fill="#1572b6" d="M 161.2,1807.7 0,0 h 1771 l -161.4,1807.4 -725.2,201 z"/><path id="path6" fill="#33a9dc" d="m 885.5,1854.8 586,-162.5 137.8,-1544.5 H 885.5 Z"/><path id="path8" fill="#fff" d="m 885.5,802.7 h 293.4 l 20.2,-227 H 885.5 V 354.1 h 556 l -5.3,59.5 -54.5,611 H 885.5 Z"/><path id="path10" fill="#ebebeb" d="m 886.7,1378.5 h -1 L 638.8,1311.8 623,1135 H 400.6 l 31.1,348.1 454.2,126.4 h 1.3 v -231 z"/><path id="path12" fill="#fff" d="m 1160.1,1014.9 -26.7,296.7 -247.3,66.7 v 231 l 454.5,-126 3.3,-37.5 38.6,-431 h -222.4 z"/><path id="path14" fill="#ebebeb" d="M 886.3,354.1 V 575.8 H 350.9 L 346.3,526 336.2,413.6 330.9,354.1 Z m -0.8,448.6 v 221.7 H 641.4 L 637.1,974.6 627,862.2 621.7,802.7 h 263.7 z"/></svg>