<?xml version="1.0" encoding="UTF-8" standalone="no"?>
<svg
   xmlns:dc="http://purl.org/dc/elements/1.1/"
   xmlns:cc="http://creativecommons.org/ns#"
   xmlns:rdf="http://www.w3.org/1999/02/22-rdf-syntax-ns#"
   xmlns:svg="http://www.w3.org/2000/svg"
   xmlns="http://www.w3.org/2000/svg"
   xmlns:sodipodi="http://sodipodi.sourceforge.net/DTD/sodipodi-0.dtd"
   xmlns:inkscape="http://www.inkscape.org/namespaces/inkscape"
   enable-background="new 0 0 1771 2499.8"
   viewBox="0 0 1771 2008.4"
   version="1.1"
   id="svg16"
   sodipodi:docname="css-logo.svg"
   width="1771"
   height="2008.4"
   inkscape:version="1.0.1 (1.0.1+r74)">
  <metadata
     id="metadata22">
    <rdf:RDF>
      <cc:Work
         rdf:about="">
        <dc:format>image/svg+xml</dc:format>
        <dc:type
           rdf:resource="http://purl.org/dc/dcmitype/StillImage" />
        <dc:title></dc:title>
      </cc:Work>
    </rdf:RDF>
  </metadata>
  <defs
     id="defs20" />
  <sodipodi:namedview
     pagecolor="#ffffff"
     bordercolor="#666666"
     borderopacity="1"
     objecttolerance="10"
     gridtolerance="10"
     guidetolerance="10"
     inkscape:pageopacity="0"
     inkscape:pageshadow="2"
     inkscape:window-width="1366"
     inkscape:window-height="701"
     id="namedview18"
     showgrid="false"
     inkscape:zoom="0.14482705"
     inkscape:cx="916.30045"
     inkscape:cy="776.94368"
     inkscape:window-x="0"
     inkscape:window-y="0"
     inkscape:window-maximized="1"
     inkscape:current-layer="svg16" />
  <path
     d="M 161.2,1807.7 0,0 h 1771 l -161.4,1807.4 -725.2,201 z"
     fill="#1572b6"
     id="path4" />
  <path
     d="m 885.5,1854.8 586,-162.5 137.8,-1544.5 H 885.5 Z"
     fill="#33a9dc"
     id="path6" />
  <path
     d="m 885.5,802.7 h 293.4 l 20.2,-227 H 885.5 V 354.1 h 556 l -5.3,59.5 -54.5,611 H 885.5 Z"
     fill="#ffffff"
     id="path8" />
  <path
     d="m 886.7,1378.5 h -1 L 638.8,1311.8 623,1135 H 400.6 l 31.1,348.1 454.2,126.4 h 1.3 v -231 z"
     fill="#ebebeb"
     id="path10" />
  <path
     d="m 1160.1,1014.9 -26.7,296.7 -247.3,66.7 v 231 l 454.5,-126 3.3,-37.5 38.6,-431 h -222.4 z"
     fill="#ffffff"
     id="path12" />
  <path
     d="M 886.3,354.1 V 575.8 H 350.9 L 346.3,526 336.2,413.6 330.9,354.1 Z m -0.8,448.6 v 221.7 H 641.4 L 637.1,974.6 627,862.2 621.7,802.7 h 263.7 z"
     fill="#ebebeb"
     id="path14" />
</svg>
