<svg xmlns="http://www.w3.org/2000/svg" xmlns:svg="http://www.w3.org/2000/svg" id="Layer_1" width="1781" height="2466.65" x="0" y="0" version="1.1" viewBox="0 0 1781 2466.65" xml:space="preserve"><metadata id="metadata17"/><style id="style2" type="text/css">.st0{fill:#ffa000}.st1{fill:#f57f17}.st2{fill:#ffca28}</style><path id="path4" d="m 1169.4,890.94963 -246.7,229.69997 -229,-462.09997 118.3,-265.7 c 29.9,-53 78.8,-53.7 108.7,0 z" class="st0"/><path id="path6" d="M 922.8,1120.5496 0,1978.8496 693.8,658.54963 Z" class="st1"/><path id="path8" d="m 1439.9,539.64963 c 44.2,-42.1 89.7,-27.9 101.2,31.9 l 239.9,1395.69997 -795.7,477.7 c -27.9,15.6 -101.9,21.7 -101.9,21.7 0,0 -67.3,-8.2 -93.1,-22.4 L 0,1978.8496 Z" class="st2"/><path id="path10" d="M 693.8,658.54963 0,1978.8496 309.2,49.049631 c 11.6,-59.8 45.5,-65.9 76.1,-12.9 z" class="st0"/></svg>