<?xml version="1.0" encoding="UTF-8" standalone="no"?>
<svg
   xmlns:dc="http://purl.org/dc/elements/1.1/"
   xmlns:cc="http://creativecommons.org/ns#"
   xmlns:rdf="http://www.w3.org/1999/02/22-rdf-syntax-ns#"
   xmlns:svg="http://www.w3.org/2000/svg"
   xmlns="http://www.w3.org/2000/svg"
   xmlns:sodipodi="http://sodipodi.sourceforge.net/DTD/sodipodi-0.dtd"
   xmlns:inkscape="http://www.inkscape.org/namespaces/inkscape"
   version="1.1"
   id="Layer_1"
   x="0px"
   y="0px"
   viewBox="0 0 1781 2466.6496"
   xml:space="preserve"
   sodipodi:docname="firebase-logo.svg"
   width="1781"
   height="2466.6497"
   inkscape:version="1.0.1 (1.0.1+r74)"><metadata
   id="metadata17"><rdf:RDF><cc:Work
       rdf:about=""><dc:format>image/svg+xml</dc:format><dc:type
         rdf:resource="http://purl.org/dc/dcmitype/StillImage" /><dc:title></dc:title></cc:Work></rdf:RDF></metadata><defs
   id="defs15" /><sodipodi:namedview
   pagecolor="#ffffff"
   bordercolor="#666666"
   borderopacity="1"
   objecttolerance="10"
   gridtolerance="10"
   guidetolerance="10"
   inkscape:pageopacity="0"
   inkscape:pageshadow="2"
   inkscape:window-width="1366"
   inkscape:window-height="701"
   id="namedview13"
   showgrid="false"
   inkscape:zoom="0.10377817"
   inkscape:cx="398.07261"
   inkscape:cy="1478.9444"
   inkscape:window-x="0"
   inkscape:window-y="0"
   inkscape:window-maximized="1"
   inkscape:current-layer="Layer_1" />
<style
   type="text/css"
   id="style2">
	.st0{fill:#FFA000;}
	.st1{fill:#F57F17;}
	.st2{fill:#FFCA28;}
</style>
<path
   class="st0"
   d="m 1169.4,890.94963 -246.7,229.69997 -229,-462.09997 118.3,-265.7 c 29.9,-53 78.8,-53.7 108.7,0 z"
   id="path4" />
<path
   class="st1"
   d="M 922.8,1120.5496 0,1978.8496 693.8,658.54963 Z"
   id="path6" />
<path
   class="st2"
   d="m 1439.9,539.64963 c 44.2,-42.1 89.7,-27.9 101.2,31.9 l 239.9,1395.69997 -795.7,477.7 c -27.9,15.6 -101.9,21.7 -101.9,21.7 0,0 -67.3,-8.2 -93.1,-22.4 L 0,1978.8496 Z"
   id="path8" />
<path
   class="st0"
   d="M 693.8,658.54963 0,1978.8496 309.2,49.049631 c 11.6,-59.8 45.5,-65.9 76.1,-12.9 z"
   id="path10" />
</svg>
