<?xml version="1.0" encoding="UTF-8" standalone="no"?>
<svg
   xmlns:dc="http://purl.org/dc/elements/1.1/"
   xmlns:cc="http://creativecommons.org/ns#"
   xmlns:rdf="http://www.w3.org/1999/02/22-rdf-syntax-ns#"
   xmlns:svg="http://www.w3.org/2000/svg"
   xmlns="http://www.w3.org/2000/svg"
   xmlns:sodipodi="http://sodipodi.sourceforge.net/DTD/sodipodi-0.dtd"
   xmlns:inkscape="http://www.inkscape.org/namespaces/inkscape"
   width="2499.9951"
   height="2499.9536"
   viewBox="0 0 255.9995 255.99525"
   preserveAspectRatio="xMinYMin meet"
   version="1.1"
   id="svg4"
   sodipodi:docname="git-logo.svg"
   inkscape:version="1.0.1 (1.0.1+r74)">
  <metadata
     id="metadata10">
    <rdf:RDF>
      <cc:Work
         rdf:about="">
        <dc:format>image/svg+xml</dc:format>
        <dc:type
           rdf:resource="http://purl.org/dc/dcmitype/StillImage" />
        <dc:title></dc:title>
      </cc:Work>
    </rdf:RDF>
  </metadata>
  <defs
     id="defs8" />
  <sodipodi:namedview
     pagecolor="#ffffff"
     bordercolor="#666666"
     borderopacity="1"
     objecttolerance="10"
     gridtolerance="10"
     guidetolerance="10"
     inkscape:pageopacity="0"
     inkscape:pageshadow="2"
     inkscape:window-width="1366"
     inkscape:window-height="701"
     id="namedview6"
     showgrid="false"
     inkscape:zoom="0.072407734"
     inkscape:cx="1456.376"
     inkscape:cy="1856.2794"
     inkscape:window-x="0"
     inkscape:window-y="0"
     inkscape:window-maximized="1"
     inkscape:current-layer="svg4" />
  <path
     d="M 251.172,116.59375 139.4,4.82775 c -6.433,-6.437 -16.873,-6.437 -23.314,0 l -23.21,23.21 29.443,29.443 c 6.842,-2.312 14.688,-0.761 20.142,4.693 5.48,5.489 7.02,13.402 4.652,20.266 l 28.375,28.376 c 6.865,-2.365 14.786,-0.835 20.269,4.657 7.663,7.66 7.663,20.075 0,27.74 -7.665,7.666 -20.08,7.666 -27.749,0 -5.764,-5.77 -7.188,-14.235 -4.27,-21.336 l -26.462,-26.462 -0.003,69.637 a 19.82,19.82 0 0 1 5.188,3.71 c 7.663,7.66 7.663,20.076 0,27.747 -7.665,7.662 -20.086,7.662 -27.74,0 -7.663,-7.671 -7.663,-20.086 0,-27.746 a 19.654,19.654 0 0 1 6.421,-4.281 v -70.286 a 19.378,19.378 0 0 1 -6.421,-4.281 c -5.806,-5.798 -7.202,-14.317 -4.227,-21.446 l -29.024,-29.027 -76.64,76.635 c -6.44,6.443 -6.44,16.884 0,23.322 l 111.774,111.768 c 6.435,6.438 16.873,6.438 23.316,0 l 111.251,-111.249 c 6.438,-6.44 6.438,-16.887 0,-23.324"
     fill="#de4c36"
     id="path2" />
</svg>
