<svg xmlns="http://www.w3.org/2000/svg" xmlns:svg="http://www.w3.org/2000/svg" id="svg16" width="2498.248" height="2301.312" preserveAspectRatio="xMinYMin meet" version="1.1" viewBox="0 0 255.821 235.622"><metadata id="metadata22"/><path id="path2" fill="#e24329" d="M 127.9104,235.65438 175.0144,90.684375 H 80.805398 L 127.9094,235.65438 Z"/><path id="path4" fill="#fc6d26" d="M 127.9104,235.65338 80.805398,90.683375 h -66.014 z"/><path id="path6" fill="#fca326" d="M 14.791398,90.683375 0.4773978,134.73938 a 9.752,9.752 0 0 0 3.542,10.903 L 127.9104,235.65438 14.790398,90.684375 Z"/><path id="path8" fill="#e24329" d="m 14.791398,90.684375 h 66.014 l -28.369,-87.315 c -1.46,-4.493 -7.816,-4.492 -9.275,0 z"/><path id="path10" fill="#fc6d26" d="m 127.9104,235.65338 47.104,-144.970005 h 66.015 l -113.12,144.970005 z"/><path id="path12" fill="#fca326" d="m 241.0294,90.683375 14.314,44.056005 a 9.752,9.752 0 0 1 -3.543,10.903 l -123.89,90.012 113.119,-144.970005 z"/><path id="path14" fill="#e24329" d="m 241.0294,90.684375 h -66.015 l 28.37,-87.315 c 1.46,-4.493 7.816,-4.492 9.275,0 z"/></svg>