<svg xmlns="http://www.w3.org/2000/svg" xmlns:svg="http://www.w3.org/2000/svg" id="svg12" width="1766.69" height="2003.615" preserveAspectRatio="xMinYMin meet" version="1.1" viewBox="0 0 255.089 289.322"><metadata id="metadata18"/><path id="path2" fill="#e44d26" d="M 255.11,0 231.869,260.36 127.399,289.322 23.217,260.4 0,0 Z"/><path id="path4" fill="#f16529" d="m 127.555,267.184 84.417,-23.403 19.86,-222.49 H 127.555 Z"/><path id="path6" fill="#ebebeb" d="m 82.375,85.166 h 45.18 V 53.229 H 47.472 l 0.764,8.568 7.85,88.01 h 71.469 V 117.87 H 85.294 Z m 7.198,80.61 h -32.06 l 4.474,50.146 65.421,18.16 0.147,-0.04 v -33.228 l -0.14,0.037 -35.568,-9.604 z"/><path id="path10" fill="#fff" d="m 127.445,149.807 h 39.327 l -3.708,41.42 -35.62,9.614 v 33.226 l 65.473,-18.145 0.48,-5.396 7.506,-84.08 0.779,-8.576 h -74.237 z m 0,-64.719 v 0.078 h 77.143 l 0.64,-7.178 1.456,-16.191 0.763,-8.568 h -80.002 v 31.86 z"/></svg>