<?xml version="1.0" encoding="UTF-8" standalone="no"?>
<svg
   xmlns:dc="http://purl.org/dc/elements/1.1/"
   xmlns:cc="http://creativecommons.org/ns#"
   xmlns:rdf="http://www.w3.org/1999/02/22-rdf-syntax-ns#"
   xmlns:svg="http://www.w3.org/2000/svg"
   xmlns="http://www.w3.org/2000/svg"
   xmlns:sodipodi="http://sodipodi.sourceforge.net/DTD/sodipodi-0.dtd"
   xmlns:inkscape="http://www.inkscape.org/namespaces/inkscape"
   width="1766.6897"
   height="2003.615"
   viewBox="0 0 255.08887 289.322"
   preserveAspectRatio="xMinYMin meet"
   version="1.1"
   id="svg12"
   sodipodi:docname="html-logo.svg"
   inkscape:version="1.0.1 (1.0.1+r74)">
  <metadata
     id="metadata18">
    <rdf:RDF>
      <cc:Work
         rdf:about="">
        <dc:format>image/svg+xml</dc:format>
        <dc:type
           rdf:resource="http://purl.org/dc/dcmitype/StillImage" />
        <dc:title></dc:title>
      </cc:Work>
    </rdf:RDF>
  </metadata>
  <defs
     id="defs16" />
  <sodipodi:namedview
     pagecolor="#ffffff"
     bordercolor="#666666"
     borderopacity="1"
     objecttolerance="10"
     gridtolerance="10"
     guidetolerance="10"
     inkscape:pageopacity="0"
     inkscape:pageshadow="2"
     inkscape:window-width="1366"
     inkscape:window-height="701"
     id="namedview14"
     showgrid="false"
     inkscape:zoom="0.1024"
     inkscape:cx="891.80222"
     inkscape:cy="1060.6239"
     inkscape:window-x="0"
     inkscape:window-y="0"
     inkscape:window-maximized="1"
     inkscape:current-layer="svg12" />
  <path
     d="M 255.11,0 231.869,260.36 127.399,289.322 23.217,260.4 0,0 Z"
     fill="#e44d26"
     id="path2" />
  <path
     d="m 127.555,267.184 84.417,-23.403 19.86,-222.49 H 127.555 Z"
     fill="#f16529"
     id="path4" />
  <path
     d="m 82.375,85.166 h 45.18 V 53.229 H 47.472 l 0.764,8.568 7.85,88.01 h 71.469 V 117.87 H 85.294 Z m 7.198,80.61 h -32.06 l 4.474,50.146 65.421,18.16 0.147,-0.04 v -33.228 l -0.14,0.037 -35.568,-9.604 z"
     fill="#ebebeb"
     id="path6" />
  <path
     d="m 127.445,149.807 h 39.327 l -3.708,41.42 -35.62,9.614 v 33.226 l 65.473,-18.145 0.48,-5.396 7.506,-84.08 0.779,-8.576 h -74.237 z m 0,-64.719 v 0.078 h 77.143 l 0.64,-7.178 1.456,-16.191 0.763,-8.568 h -80.002 v 31.86 z"
     fill="#ffffff"
     id="path10" />
</svg>
