<?xml version="1.0" encoding="UTF-8" standalone="no"?>
<svg
   xmlns:dc="http://purl.org/dc/elements/1.1/"
   xmlns:cc="http://creativecommons.org/ns#"
   xmlns:rdf="http://www.w3.org/1999/02/22-rdf-syntax-ns#"
   xmlns:svg="http://www.w3.org/2000/svg"
   xmlns="http://www.w3.org/2000/svg"
   xmlns:sodipodi="http://sodipodi.sourceforge.net/DTD/sodipodi-0.dtd"
   xmlns:inkscape="http://www.inkscape.org/namespaces/inkscape"
   width="2500"
   height="2500"
   viewBox="0 0 1052 1052"
   version="1.1"
   id="svg6"
   sodipodi:docname="javascript-logo.svg"
   inkscape:version="1.0.1 (1.0.1+r74)">
  <metadata
     id="metadata12">
    <rdf:RDF>
      <cc:Work
         rdf:about="">
        <dc:format>image/svg+xml</dc:format>
        <dc:type
           rdf:resource="http://purl.org/dc/dcmitype/StillImage" />
        <dc:title></dc:title>
      </cc:Work>
    </rdf:RDF>
  </metadata>
  <defs
     id="defs10" />
  <sodipodi:namedview
     pagecolor="#ffffff"
     bordercolor="#666666"
     borderopacity="1"
     objecttolerance="10"
     gridtolerance="10"
     guidetolerance="10"
     inkscape:pageopacity="0"
     inkscape:pageshadow="2"
     inkscape:window-width="1366"
     inkscape:window-height="701"
     id="namedview8"
     showgrid="false"
     inkscape:zoom="0.14481547"
     inkscape:cx="914.26049"
     inkscape:cy="1415.8472"
     inkscape:window-x="0"
     inkscape:window-y="0"
     inkscape:window-maximized="1"
     inkscape:current-layer="svg6" />
  <path
     fill="#f0db4f"
     d="M 0,0 H 1052 V 1052 H 0 Z"
     id="path2" />
  <path
     d="m 965.9,801.1 c -7.7,-48 -39,-88.3 -131.7,-125.9 -32.2,-14.8 -68.1,-25.399 -78.8,-49.8 -3.8,-14.2 -4.3,-22.2 -1.9,-30.8 6.9,-27.9 40.2,-36.6 66.6,-28.6 17,5.7 33.1,18.801 42.8,39.7 45.4,-29.399 45.3,-29.2 77,-49.399 -11.6,-18 -17.8,-26.301 -25.4,-34 -27.3,-30.5 -64.5,-46.2 -124,-45 -10.3,1.3 -20.699,2.699 -31,4 -29.699,7.5 -58,23.1 -74.6,44 -49.8,56.5 -35.6,155.399 25,196.1 59.7,44.8 147.4,55 158.6,96.9 10.9,51.3 -37.699,67.899 -86,62 -35.6,-7.4 -55.399,-25.5 -76.8,-58.4 -39.399,22.8 -39.399,22.8 -79.899,46.1 9.6,21 19.699,30.5 35.8,48.7 76.2,77.3 266.899,73.5 301.1,-43.5 1.399,-4.001 10.6,-30.801 3.199,-72.101 z m -394,-317.6 h -98.4 c 0,85 -0.399,169.4 -0.399,254.4 0,54.1 2.8,103.7 -6,118.9 -14.4,29.899 -51.7,26.2 -68.7,20.399 -17.3,-8.5 -26.1,-20.6 -36.3,-37.699 -2.8,-4.9 -4.9,-8.7 -5.601,-9 -26.699,16.3 -53.3,32.699 -80,49 13.301,27.3 32.9,51 58,66.399 37.5,22.5 87.9,29.4 140.601,17.3 34.3,-10 63.899,-30.699 79.399,-62.199 22.4,-41.3 17.6,-91.3 17.4,-146.6 0.5,-90.2 0,-180.4 0,-270.9 z"
     fill="#323330"
     id="path4" />
</svg>
