<?xml version="1.0" encoding="UTF-8" standalone="no"?>
<svg
   xmlns:dc="http://purl.org/dc/elements/1.1/"
   xmlns:cc="http://creativecommons.org/ns#"
   xmlns:rdf="http://www.w3.org/1999/02/22-rdf-syntax-ns#"
   xmlns:svg="http://www.w3.org/2000/svg"
   xmlns="http://www.w3.org/2000/svg"
   xmlns:sodipodi="http://sodipodi.sourceforge.net/DTD/sodipodi-0.dtd"
   xmlns:inkscape="http://www.inkscape.org/namespaces/inkscape"
   width="1840.5"
   height="2495.5269"
   viewBox="0 0 254.68541 345.38092"
   preserveAspectRatio="xMinYMin meet"
   version="1.1"
   id="svg12"
   sodipodi:docname="java-logo.svg"
   inkscape:version="1.0.1 (1.0.1+r74)">
  <metadata
     id="metadata18">
    <rdf:RDF>
      <cc:Work
         rdf:about="">
        <dc:format>image/svg+xml</dc:format>
        <dc:type
           rdf:resource="http://purl.org/dc/dcmitype/StillImage" />
        <dc:title></dc:title>
      </cc:Work>
    </rdf:RDF>
  </metadata>
  <defs
     id="defs16" />
  <sodipodi:namedview
     pagecolor="#ffffff"
     bordercolor="#666666"
     borderopacity="1"
     objecttolerance="10"
     gridtolerance="10"
     guidetolerance="10"
     inkscape:pageopacity="0"
     inkscape:pageshadow="2"
     inkscape:window-width="1366"
     inkscape:window-height="701"
     id="namedview14"
     showgrid="false"
     inkscape:zoom="0.072407734"
     inkscape:cx="-247.29237"
     inkscape:cy="1494.1531"
     inkscape:window-x="0"
     inkscape:window-y="0"
     inkscape:window-maximized="1"
     inkscape:current-layer="svg12" />
  <path
     d="m 82.037206,267.103 c 0,0 -13.198,7.675 9.393,10.272 27.369004,3.122 41.356004,2.675 71.517004,-3.034 0,0 7.93,4.972 19.003,9.279 -67.611,28.977 -153.019004,-1.679 -99.913004,-16.517 m -8.262,-37.814 c 0,0 -14.803,10.958 7.805,13.296 29.236004,3.016 52.324004,3.263 92.276004,-4.43 0,0 5.526,5.602 14.215,8.666 -81.747,23.904 -172.798004,1.885 -114.296004,-17.532"
     fill="#5382a1"
     id="path2" />
  <path
     d="m 143.42521,165.145 c 16.66,19.18 -4.377,36.44 -4.377,36.44 0,0 42.301,-21.837 22.874,-49.183 -18.144,-25.5 -32.059,-38.172 43.268,-81.858 0,0 -118.238004,29.53 -61.765,94.6"
     fill="#e76f00"
     id="path4" />
  <path
     d="m 232.84721,295.072 c 0,0 9.767,8.047 -10.757,14.273 -39.026,11.823 -162.432004,15.393 -196.714004,0.471 -12.323,-5.36 10.787,-12.8 18.056,-14.362 7.581,-1.644 11.914,-1.337 11.914,-1.337 -13.705,-9.655 -88.583,18.957 -38.034,27.15 C 155.16521,343.623 268.60421,311.201 232.84721,295.072 M 88.383206,190.11 c 0,0 -62.771,14.91 -22.228,20.323 17.118,2.292 51.243004,1.774 83.030004,-0.89 25.978,-2.19 52.063,-6.85 52.063,-6.85 0,0 -9.16,3.923 -15.787,8.448 -63.744,16.765 -186.8860043,8.966 -151.435004,-8.183 29.981,-14.492 54.358,-12.848 54.358,-12.848 m 112.605004,62.942 c 64.8,-33.672 34.839,-66.03 13.927,-61.67 -5.126,1.066 -7.411,1.99 -7.411,1.99 0,0 1.903,-2.98 5.537,-4.27 41.37,-14.545 73.187,42.897 -13.355,65.647 0,0.001 1.003,-0.895 1.302,-1.697"
     fill="#5382a1"
     id="path6" />
  <path
     d="m 161.92221,0.001 c 0,0 35.887,35.9 -34.037,91.101 -56.071004,44.282 -12.786,69.53 -0.023,98.377 C 95.132206,159.949 71.112206,133.953 87.227206,109.759 110.87821,74.242 176.40121,57.023 161.92221,0"
     fill="#e76f00"
     id="path8" />
  <path
     d="m 94.751206,344.295 c 62.199004,3.982 157.712004,-2.209 159.974004,-31.64 0,0 -4.348,11.158 -51.404,20.018 -53.088,9.99 -118.564004,8.824 -157.399004,2.421 10e-4,0 7.95,6.58 48.83,9.201"
     fill="#5382a1"
     id="path10" />
</svg>
