<?xml version="1.0" encoding="UTF-8" standalone="no"?>
<svg
   xmlns:dc="http://purl.org/dc/elements/1.1/"
   xmlns:cc="http://creativecommons.org/ns#"
   xmlns:rdf="http://www.w3.org/1999/02/22-rdf-syntax-ns#"
   xmlns:svg="http://www.w3.org/2000/svg"
   xmlns="http://www.w3.org/2000/svg"
   xmlns:sodipodi="http://sodipodi.sourceforge.net/DTD/sodipodi-0.dtd"
   xmlns:inkscape="http://www.inkscape.org/namespaces/inkscape"
   height="2030.29"
   viewBox="8.738 -5.0362283 6.368966 32.002402"
   width="911.94067"
   version="1.1"
   id="svg8"
   sodipodi:docname="mongodb.svg"
   inkscape:version="1.0.1 (1.0.1+r74)">
  <metadata
     id="metadata14">
    <rdf:RDF>
      <cc:Work
         rdf:about="">
        <dc:format>image/svg+xml</dc:format>
        <dc:type
           rdf:resource="http://purl.org/dc/dcmitype/StillImage" />
      </cc:Work>
    </rdf:RDF>
  </metadata>
  <defs
     id="defs12" />
  <sodipodi:namedview
     pagecolor="#ffffff"
     bordercolor="#666666"
     borderopacity="1"
     objecttolerance="10"
     gridtolerance="10"
     guidetolerance="10"
     inkscape:pageopacity="0"
     inkscape:pageshadow="2"
     inkscape:window-width="1366"
     inkscape:window-height="701"
     id="namedview10"
     showgrid="false"
     inkscape:zoom="0.072407734"
     inkscape:cx="142.1145"
     inkscape:cy="705.64639"
     inkscape:window-x="0"
     inkscape:window-y="0"
     inkscape:window-maximized="1"
     inkscape:current-layer="svg8" />
  <path
     d="m 11.822337,-4.9488253 0.854,1.604 c 0.192,0.296 0.4,0.558 0.645,0.802 a 22.406,22.406 0 0 1 2.004,2.26600001 c 1.447,1.89999999 2.423,4.00999999 3.12,6.29199999 0.418,1.394 0.645,2.824 0.662,4.2700003 0.07,4.323 -1.412,8.035 -4.4,11.12 a 12.7,12.7 0 0 1 -1.57,1.342 c -0.296,0 -0.436,-0.227 -0.558,-0.436 a 3.589,3.589 0 0 1 -0.436,-1.255 c -0.105,-0.523 -0.174,-1.046 -0.14,-1.586 v -0.244 c -0.024,-0.052 -0.285,-24.0520003 -0.181,-24.1750003 z"
     fill="#599636"
     id="path2" />
  <path
     d="m 11.822337,-5.0018253 c -0.035,-0.07 -0.07,-0.017 -0.105,0.017 0.017,0.35 -0.105,0.662 -0.296,0.96 -0.21,0.296 -0.488,0.523 -0.767,0.767 -1.5499997,1.342 -2.7699987,2.96300001 -3.7469987,4.776 -1.300001,2.44 -1.970001,5.055 -2.160001,7.808 -0.087,0.9930003 0.314,4.4970003 0.627,5.5080003 0.854001,2.684 2.388001,4.933 4.375,6.885 0.4879997,0.47 1.0099997,0.906 1.5499997,1.325 0.157,0 0.174,-0.14 0.21,-0.244 a 4.78,4.78 0 0 0 0.157,-0.68 l 0.35,-2.614 z"
     fill="#6cac48"
     id="path4" />
  <path
     d="m 12.676337,23.809175 c 0.035,-0.4 0.227,-0.732 0.436,-1.063 -0.21,-0.087 -0.366,-0.26 -0.488,-0.453 a 3.235,3.235 0 0 1 -0.26,-0.575 c -0.244,-0.732 -0.296,-1.5 -0.366,-2.248 v -0.453 c -0.087,0.07 -0.105,0.662 -0.105,0.75 a 17.37,17.37 0 0 1 -0.314,2.353 c -0.052,0.314 -0.087,0.627 -0.28,0.906 0,0.035 0,0.07 0.017,0.122 0.314,0.924 0.4,1.865 0.453,2.824 v 0.35 c 0,0.418 -0.017,0.33 0.33,0.47 0.14,0.052 0.296,0.07 0.436,0.174 0.105,0 0.122,-0.087 0.122,-0.157 l -0.052,-0.575 v -1.604 c -0.017,-0.28 0.035,-0.558 0.07,-0.82 z"
     fill="#c2bfbf"
     id="path6" />
</svg>
