<svg xmlns="http://www.w3.org/2000/svg" xmlns:svg="http://www.w3.org/2000/svg" id="svg6" width="2498.102" height="2452.187" preserveAspectRatio="xMinYMin meet" version="1.1" viewBox="0 0 255.806 251.098"><metadata id="metadata12"/><path id="path2" fill="#00546b" d="m 235.62363,194.21192 c -13.918,-0.347 -24.705,1.045 -33.752,4.872 -2.61,1.043 -6.786,1.044 -7.134,4.35 1.392,1.392 1.566,3.654 2.784,5.567 2.09,3.479 5.741,8.177 9.047,10.614 3.653,2.783 7.308,5.566 11.134,8.002 6.786,4.176 14.442,6.611 21.053,10.787 3.829,2.434 7.654,5.568 11.482,8.177 1.914,1.39 3.131,3.654 5.568,4.523 v -0.521 c -1.219,-1.567 -1.567,-3.828 -2.784,-5.568 -1.738,-1.74 -3.48,-3.306 -5.22,-5.046 -5.045,-6.784 -11.308,-12.7 -18.093,-17.571 -5.567,-3.828 -17.747,-9.047 -20.008,-15.485 0,0 -0.175,-0.173 -0.348,-0.347 3.827,-0.348 8.35,-1.74 12.005,-2.784 5.915,-1.567 11.308,-1.218 17.398,-2.784 2.783,-0.696 5.567,-1.566 8.35,-2.436 v -1.565 c -3.13,-3.132 -5.392,-7.307 -8.698,-10.265 -8.873,-7.657 -18.617,-15.137 -28.707,-21.4 -5.394,-3.48 -12.354,-5.742 -18.095,-8.699 -2.086,-1.045 -5.567,-1.566 -6.784,-3.306 -3.133,-3.827 -4.873,-8.872 -7.134,-13.396 -5.044,-9.57 -9.917,-20.182 -14.267,-30.272 -3.13,-6.786 -5.044,-13.572 -8.872,-19.834 -17.92,-29.577 -37.406,-47.497 -67.329996,-65.07 -6.438,-3.653 -14.093,-5.219 -22.27,-7.132 -4.348,-0.175 -8.699,-0.522 -13.048,-0.697 -2.784,-1.218 -5.568,-4.523 -8.004,-6.089 -9.915,-6.2639998 -35.4920002,-19.8329998 -42.7990002,-1.9129998 -4.698,11.3079998 6.96,22.4419998 10.9600002,28.1849998 2.96,4.001 6.786,8.524 8.874,13.048 1.218,2.956 1.565,6.09 2.783,9.221 2.785,7.653 5.393,16.18 9.048,23.314 1.914,3.653 4.001,7.48 6.437,10.786 1.392,1.913 3.827,2.784 4.35,5.915 -2.435,3.48 -2.61,8.7 -4.003,13.049 -6.263,19.66 -3.826,44.017 5.046,58.457 2.783,4.348 9.395,13.92 18.268,10.265 7.83,-3.131 6.09,-13.048 8.35,-21.747 0.524,-2.09 0.176,-3.48 1.219,-4.872 v 0.349 c 2.436,4.87 4.871,9.569 7.133,14.44 5.394,8.524 14.788,17.398 22.616996,23.314 4.177,3.13 7.482,8.524 12.702,10.438 v -0.523 h -0.349 c -1.044,-1.566 -2.61,-2.261 -4.001,-3.48 -3.131,-3.13 -6.612,-6.958 -9.047,-10.438 -7.305996,-9.744 -13.744996,-20.53 -19.485996,-31.665 -2.783,-5.392 -5.22,-11.308 -7.481,-16.701 -1.045,-2.09 -1.045,-5.22 -2.784,-6.263 -2.61,3.827 -6.437,7.133 -8.351,11.83 -3.304,7.481 -3.653,16.702 -4.871,26.27 -0.696,0.176 -0.349,0 -0.697,0.35 -5.566,-1.394 -7.48,-7.134 -9.569,-12.006 -5.22,-12.352 -6.09,-32.186 -1.565,-46.452 1.218,-3.654 6.438,-15.136 4.35,-18.616 -1.044,-3.306 -4.525,-5.22 -6.438,-7.829 -2.261,-3.306 -4.698,-7.48 -6.263,-11.135 -4.176,-9.743 -6.264,-20.53 -10.787,-30.273 -2.088,-4.524 -5.74,-9.22 -8.699,-13.396 -3.305,-4.697 -6.959,-8.004 -9.5690002,-13.571 -0.869,-1.913 -2.088,-5.045 -0.696,-7.133 0.348,-1.392 1.043,-1.913 2.4360002,-2.2609998 2.262,-1.915 8.7,0.5209998 10.96,1.5649998 6.438,2.608 11.831,5.046 17.225,8.699 2.435,1.74 5.045,5.046 8.176,5.916 h 3.654 c 5.568,1.217 11.83,0.348 17.05,1.913 9.222,2.957 17.572,7.307 25.054,12.005 22.791996,14.44 41.579996,34.97 54.281996,59.501 2.088,4 2.957,7.656 4.871,11.83 3.655,8.526 8.178,17.225 11.83,25.576 3.654,8.176 7.133,16.528 12.353,23.314 2.61,3.652 13.048,5.567 17.746,7.481 3.48,1.565 8.874,2.958 12.005,4.871 5.915,3.652 11.83,7.83 17.398,11.83 2.784,2.088 11.482,6.438 12.005,9.917 z"/><path id="path4" fill="#00546b" d="m 58.161634,43.02192 c -2.957,0 -5.044,0.35 -7.132,0.871 v 0.348 h 0.348 c 1.393,2.784 3.827,4.698 5.566,7.133 1.393,2.783 2.61,5.568 4.003,8.352 0.173,-0.175 0.347,-0.348 0.347,-0.348 2.437,-1.741 3.654,-4.524 3.654,-8.7 -1.044,-1.217 -1.218,-2.435 -2.088,-3.653 -1.043,-1.741 -3.306,-2.61 -4.698,-4.003 z"/></svg>