<?xml version="1.0" encoding="UTF-8" standalone="no"?>
<svg
   xmlns:dc="http://purl.org/dc/elements/1.1/"
   xmlns:cc="http://creativecommons.org/ns#"
   xmlns:rdf="http://www.w3.org/1999/02/22-rdf-syntax-ns#"
   xmlns:svg="http://www.w3.org/2000/svg"
   xmlns="http://www.w3.org/2000/svg"
   xmlns:sodipodi="http://sodipodi.sourceforge.net/DTD/sodipodi-0.dtd"
   xmlns:inkscape="http://www.inkscape.org/namespaces/inkscape"
   height="1509"
   viewBox="0.145 0.207 147.43966 89.291"
   width="2495.8469"
   version="1.1"
   id="svg4"
   sodipodi:docname="nextjs-logo.svg"
   inkscape:version="1.0.1 (1.0.1+r74)">
  <metadata
     id="metadata10">
    <rdf:RDF>
      <cc:Work
         rdf:about="">
        <dc:format>image/svg+xml</dc:format>
        <dc:type
           rdf:resource="http://purl.org/dc/dcmitype/StillImage" />
        <dc:title></dc:title>
      </cc:Work>
    </rdf:RDF>
  </metadata>
  <defs
     id="defs8" />
  <sodipodi:namedview
     pagecolor="#ffffff"
     bordercolor="#666666"
     borderopacity="1"
     objecttolerance="10"
     gridtolerance="10"
     guidetolerance="10"
     inkscape:pageopacity="0"
     inkscape:pageshadow="2"
     inkscape:window-width="1366"
     inkscape:window-height="701"
     id="namedview6"
     showgrid="false"
     inkscape:zoom="0.1199598"
     inkscape:cx="735.38973"
     inkscape:cy="896.15971"
     inkscape:window-x="0"
     inkscape:window-y="0"
     inkscape:window-maximized="1"
     inkscape:current-layer="svg4" />
  <path
     d="m 34.869126,23.495 h 27.855 v 2.219 h -25.301 v 16.699 h 23.792 v 2.219 h -23.792 v 18.334 h 25.591 v 2.219 h -28.145 z m 30.35,0 h 2.96 l 13.115,18.334 13.405,-18.334 18.233004,-23.288 -29.955004,43.549 15.436,21.429 h -3.076 l -14.043,-19.502 -14.101,19.502 h -3.018 l 15.552,-21.429 -14.507,-20.261 z m 34.297,2.219 v -2.219 h 31.742004 v 2.219 h -14.623 v 39.47 h -2.554 V 25.714 H 99.517126 Z M 0.02212558,23.495 H 3.2141256 L 47.225126,89.498 29.037126,65.185 2.6911256,26.648 l -0.116,38.537 H 0.02212558 Z M 131.00213,62.296 c -0.523,0 -0.914,-0.405 -0.914,-0.928 0,-0.524 0.391,-0.929 0.913,-0.929 0.528,0 0.913,0.405 0.913,0.929 0,0.523 -0.385,0.928 -0.913,0.928 z m 2.508,-2.443 h 1.367 c 0.019,0.742 0.56,1.24 1.354,1.24 0.888,0 1.391,-0.535 1.391,-1.539 v -6.356 h 1.391 v 6.362 c 0,1.808 -1.043,2.849 -2.77,2.849 -1.62,0 -2.732,-1.01 -2.732,-2.556 z m 7.322,-0.08 h 1.379 c 0.118,0.853 0.95,1.395 2.149,1.395 1.117,0 1.937,-0.58 1.937,-1.377 0,-0.685 -0.521,-1.097 -1.708,-1.377 l -1.155,-0.28 c -1.62,-0.38 -2.36,-1.166 -2.36,-2.487 0,-1.602 1.304,-2.668 3.26,-2.668 1.82,0 3.15,1.066 3.23,2.58 h -1.354 c -0.13,-0.828 -0.85,-1.346 -1.894,-1.346 -1.1,0 -1.832,0.53 -1.832,1.34 0,0.642 0.472,1.01 1.64,1.284 l 0.987,0.243 c 1.838,0.43 2.596,1.178 2.596,2.53 0,1.72 -1.33,2.799 -3.453,2.799 -1.987,0 -3.323,-1.029 -3.422,-2.637 z"
     id="path2" />
</svg>
