<svg xmlns="http://www.w3.org/2000/svg" xmlns:svg="http://www.w3.org/2000/svg" id="svg18" width="2493.73" height="2480.763" preserveAspectRatio="xMinYMin meet" version="1.1" viewBox="0 0 255.358 254.054"><metadata id="metadata22"/><defs id="defs12"><linearGradient id="a" x1="24.715" x2="151.136" y1="22.897" y2="148.336" gradientTransform="matrix(0.99888681,0,0,1.0011144,-0.145,-0.072)" gradientUnits="userSpaceOnUse"><stop id="stop2" offset="0%" stop-color="#387EB8"/><stop id="stop4" offset="100%" stop-color="#366994"/></linearGradient><linearGradient id="b" x1="102.483" x2="238.259" y1="103.266" y2="231.905" gradientTransform="matrix(0.99888668,0,0,1.0011146,-0.145,-0.072)" gradientUnits="userSpaceOnUse"><stop id="stop7" offset="0%" stop-color="#FFE052"/><stop id="stop9" offset="100%" stop-color="#FFC331"/></linearGradient></defs><path id="path14" fill="url(#a)" d="M 126.771,0 C 61.939,0 65.987,28.115 65.987,28.115 l 0.072,29.128 h 61.868 v 8.745 H 41.486 c 0,0 -41.486,-4.705 -41.486,60.71 0,65.417 36.21,63.097 36.21,63.097 h 21.61 v -30.356 c 0,0 -1.165,-36.21 35.632,-36.21 h 61.362 c 0,0 34.475,0.557 34.475,-33.319 V 33.898 c 0,0 5.236,-33.898 -62.518,-33.898 z M 92.657,19.588 a 11.12,11.12 0 0 1 11.13,11.13 11.12,11.12 0 0 1 -11.13,11.13 11.12,11.12 0 0 1 -11.13,-11.13 11.12,11.12 0 0 1 11.13,-11.13 z" style="fill:url(#a)"/><path id="path16" fill="url(#b)" d="m 128.612,254.054 c 64.832,0 60.784,-28.115 60.784,-28.115 l -0.072,-29.127 h -61.869 v -8.745 h 86.441 c 0,0 41.486,4.705 41.486,-60.712 0,-65.416 -36.21,-63.096 -36.21,-63.096 h -21.61 v 30.355 c 0,0 1.165,36.21 -35.632,36.21 h -61.362 c 0,0 -34.475,-0.557 -34.475,33.32 v 56.013 c 0,0 -5.235,33.897 62.518,33.897 z m 34.114,-19.586 a 11.12,11.12 0 0 1 -11.13,-11.13 11.12,11.12 0 0 1 11.13,-11.131 11.12,11.12 0 0 1 11.13,11.13 11.12,11.12 0 0 1 -11.13,11.13 z" style="fill:url(#b)"/></svg>