<?xml version="1.0" encoding="UTF-8" standalone="no"?>
<svg
   xmlns:dc="http://purl.org/dc/elements/1.1/"
   xmlns:cc="http://creativecommons.org/ns#"
   xmlns:rdf="http://www.w3.org/1999/02/22-rdf-syntax-ns#"
   xmlns:svg="http://www.w3.org/2000/svg"
   xmlns="http://www.w3.org/2000/svg"
   xmlns:sodipodi="http://sodipodi.sourceforge.net/DTD/sodipodi-0.dtd"
   xmlns:inkscape="http://www.inkscape.org/namespaces/inkscape"
   width="2493.7302"
   height="2480.7627"
   viewBox="0 0 255.35798 254.05401"
   preserveAspectRatio="xMinYMin meet"
   version="1.1"
   id="svg18"
   sodipodi:docname="python-logo.svg"
   inkscape:version="1.0.1 (1.0.1+r74)">
  <metadata
     id="metadata22">
    <rdf:RDF>
      <cc:Work
         rdf:about="">
        <dc:format>image/svg+xml</dc:format>
        <dc:type
           rdf:resource="http://purl.org/dc/dcmitype/StillImage" />
        <dc:title></dc:title>
      </cc:Work>
    </rdf:RDF>
  </metadata>
  <sodipodi:namedview
     pagecolor="#ffffff"
     bordercolor="#666666"
     borderopacity="1"
     objecttolerance="10"
     gridtolerance="10"
     guidetolerance="10"
     inkscape:pageopacity="0"
     inkscape:pageshadow="2"
     inkscape:window-width="1366"
     inkscape:window-height="701"
     id="namedview20"
     showgrid="false"
     inkscape:zoom="0.14539706"
     inkscape:cx="1229.9119"
     inkscape:cy="974.08027"
     inkscape:window-x="0"
     inkscape:window-y="0"
     inkscape:window-maximized="1"
     inkscape:current-layer="svg18" />
  <defs
     id="defs12">
    <linearGradient
       x1="24.714632"
       y1="22.897128"
       x2="151.13584"
       y2="148.33623"
       id="a"
       gradientTransform="matrix(0.99888681,0,0,1.0011144,-0.145,-0.072)"
       gradientUnits="userSpaceOnUse">
      <stop
         stop-color="#387EB8"
         offset="0%"
         id="stop2" />
      <stop
         stop-color="#366994"
         offset="100%"
         id="stop4" />
    </linearGradient>
    <linearGradient
       x1="102.48345"
       y1="103.26573"
       x2="238.2592"
       y2="231.90517"
       id="b"
       gradientTransform="matrix(0.99888668,0,0,1.0011146,-0.145,-0.072)"
       gradientUnits="userSpaceOnUse">
      <stop
         stop-color="#FFE052"
         offset="0%"
         id="stop7" />
      <stop
         stop-color="#FFC331"
         offset="100%"
         id="stop9" />
    </linearGradient>
  </defs>
  <path
     d="M 126.771,0 C 61.939,0 65.987,28.115 65.987,28.115 l 0.072,29.128 h 61.868 v 8.745 H 41.486 c 0,0 -41.486,-4.705 -41.486,60.71 0,65.417 36.21,63.097 36.21,63.097 h 21.61 v -30.356 c 0,0 -1.165,-36.21 35.632,-36.21 h 61.362 c 0,0 34.475,0.557 34.475,-33.319 V 33.898 c 0,0 5.236,-33.898 -62.518,-33.898 z M 92.657,19.588 a 11.12,11.12 0 0 1 11.13,11.13 11.12,11.12 0 0 1 -11.13,11.13 11.12,11.12 0 0 1 -11.13,-11.13 11.12,11.12 0 0 1 11.13,-11.13 z"
     fill="url(#a)"
     id="path14"
     style="fill:url(#a)" />
  <path
     d="m 128.612,254.054 c 64.832,0 60.784,-28.115 60.784,-28.115 l -0.072,-29.127 h -61.869 v -8.745 h 86.441 c 0,0 41.486,4.705 41.486,-60.712 0,-65.416 -36.21,-63.096 -36.21,-63.096 h -21.61 v 30.355 c 0,0 1.165,36.21 -35.632,36.21 h -61.362 c 0,0 -34.475,-0.557 -34.475,33.32 v 56.013 c 0,0 -5.235,33.897 62.518,33.897 z m 34.114,-19.586 a 11.12,11.12 0 0 1 -11.13,-11.13 11.12,11.12 0 0 1 11.13,-11.131 11.12,11.12 0 0 1 11.13,11.13 11.12,11.12 0 0 1 -11.13,11.13 z"
     fill="url(#b)"
     id="path16"
     style="fill:url(#b)" />
</svg>
