<?xml version="1.0" encoding="UTF-8" standalone="no"?>
<svg
   xmlns:dc="http://purl.org/dc/elements/1.1/"
   xmlns:cc="http://creativecommons.org/ns#"
   xmlns:rdf="http://www.w3.org/1999/02/22-rdf-syntax-ns#"
   xmlns:svg="http://www.w3.org/2000/svg"
   xmlns="http://www.w3.org/2000/svg"
   xmlns:sodipodi="http://sodipodi.sourceforge.net/DTD/sodipodi-0.dtd"
   xmlns:inkscape="http://www.inkscape.org/namespaces/inkscape"
   width="2497.5659"
   height="399.56586"
   viewBox="0 0 511.5015 81.911001"
   preserveAspectRatio="xMidYMid"
   version="1.1"
   id="svg4"
   sodipodi:docname="rethinkdb.svg"
   inkscape:version="1.0.1 (1.0.1+r74)">
  <metadata
     id="metadata10">
    <rdf:RDF>
      <cc:Work
         rdf:about="">
        <dc:format>image/svg+xml</dc:format>
        <dc:type
           rdf:resource="http://purl.org/dc/dcmitype/StillImage" />
      </cc:Work>
    </rdf:RDF>
  </metadata>
  <defs
     id="defs8" />
  <sodipodi:namedview
     pagecolor="#ffffff"
     bordercolor="#666666"
     borderopacity="1"
     objecttolerance="10"
     gridtolerance="10"
     guidetolerance="10"
     inkscape:pageopacity="0"
     inkscape:pageshadow="2"
     inkscape:window-width="1366"
     inkscape:window-height="701"
     id="namedview6"
     showgrid="false"
     inkscape:zoom="0.33714851"
     inkscape:cx="1081.988"
     inkscape:cy="175.12426"
     inkscape:window-x="0"
     inkscape:window-y="0"
     inkscape:window-maximized="1"
     inkscape:current-layer="svg4" />
  <path
     d="M -0.249,78.995 V 73.7 c 0,-1.081 0.54,-1.621 1.62,-1.621 h 5.62 V 15.886 h -5.62 c -1.08,0 -1.62,-0.54 -1.62,-1.62 V 8.861 c 0,-1.08 0.54,-1.62 1.62,-1.62 9.222,-0.433 16.895,-0.65 23.018,-0.65 18.731,0 28.096,6.7 28.096,20.1 0,4.683 -1.188,8.808 -3.566,12.374 -2.377,3.566 -5.547,6.285 -9.51,8.158 l 12.644,24.855 h 6.7 c 1.08,0 1.621,0.54 1.621,1.62 v 5.296 c 0,1.08 -0.54,1.62 -1.62,1.62 H 44.488 c -1.08,0 -1.873,-0.468 -2.378,-1.404 L 27.415,50.141 h -2.161 c -2.306,0 -4.359,-0.108 -6.16,-0.324 v 22.26 h 6.808 c 1.08,0 1.621,0.541 1.621,1.622 v 5.295 c 0,1.08 -0.54,1.62 -1.62,1.62 H 1.371 c -1.08,0 -1.621,-0.54 -1.621,-1.62 z M 19.094,15.561 v 26.043 c 0.577,0.072 1.405,0.108 2.486,0.108 5.835,0 10.374,-1.153 13.615,-3.458 3.242,-2.305 4.863,-5.763 4.863,-10.374 0,-8.213 -5.69,-12.319 -17.074,-12.319 z m 71.538,66.35 c -8.573,0 -14.859,-2.503 -18.857,-7.51 -3.999,-5.007 -5.998,-11.635 -5.998,-19.883 0,-8.25 2.125,-15.075 6.376,-20.478 4.25,-5.403 10.374,-8.105 18.37,-8.105 3.963,0 7.367,0.738 10.212,2.215 2.846,1.477 5.025,3.476 6.538,5.998 2.882,4.899 4.323,10.554 4.323,16.966 0,3.025 -0.144,4.682 -0.433,4.97 -0.288,0.289 -0.828,0.433 -1.62,0.433 h -31.77 c 0.36,5.187 1.638,9.203 3.835,12.049 2.198,2.845 5.998,4.268 11.4,4.268 3.963,0 8.034,-0.936 12.212,-2.81 1.009,-0.504 1.729,-0.216 2.161,0.865 l 2.053,4.97 c 0.36,0.865 0.036,1.586 -0.972,2.162 -4.755,2.594 -10.698,3.89 -17.83,3.89 z m -12.86,-33.39 h 22.477 c 0.144,-9.006 -3.386,-13.509 -10.59,-13.509 -4.25,0 -7.258,1.351 -9.023,4.053 -1.765,2.701 -2.72,5.853 -2.864,9.455 z m 58.57,-12.536 v 27.232 c 0,3.386 0.432,5.835 1.297,7.348 0.864,1.513 2.485,2.27 4.863,2.27 2.377,0 4.682,-0.505 6.916,-1.514 0.792,-0.288 1.368,0 1.729,0.865 l 1.945,4.97 c 0.072,0.217 0.108,0.523 0.108,0.92 0,0.395 -0.36,0.81 -1.08,1.242 -3.459,1.729 -7.565,2.593 -12.32,2.593 -6.412,0 -10.626,-1.657 -12.643,-4.97 -1.441,-2.162 -2.27,-4.251 -2.486,-6.268 a 82.652,82.652 0 0 1 -0.432,-8.645 V 35.986 h -6.16 c -1.08,0 -1.62,-0.54 -1.62,-1.621 v -5.62 c 0,-1.08 0.54,-1.62 1.62,-1.62 h 6.16 V 12.536 c 0,-1.08 0.54,-1.62 1.62,-1.62 h 8.862 c 1.08,0 1.621,0.54 1.621,1.62 v 14.589 h 10.914 c 1.08,0 1.621,0.54 1.621,1.62 v 5.62 c 0,1.08 -0.54,1.62 -1.62,1.62 H 136.341 Z M 156.874,7.241 v -5.62 c 0,-1.08 0.54,-1.62 1.62,-1.62 h 16.318 c 1.08,0 1.621,0.54 1.621,1.62 v 33.284 c 4.034,-5.98 9.618,-8.969 16.75,-8.969 11.166,0 16.75,6.123 16.75,18.37 v 27.773 h 6.375 c 1.08,0 1.621,0.54 1.621,1.62 v 5.296 c 0,1.08 -0.54,1.62 -1.62,1.62 h -23.666 c -1.081,0 -1.621,-0.54 -1.621,-1.62 V 73.7 c 0,-1.081 0.54,-1.621 1.62,-1.621 h 5.188 v -22.37 c 0,-4.538 -0.577,-7.852 -1.73,-9.941 -1.152,-2.09 -3.53,-3.134 -7.132,-3.134 -3.602,0 -6.591,1.08 -8.969,3.242 -2.377,2.161 -3.566,4.61 -3.566,7.348 v 24.855 h 6.592 c 1.08,0 1.62,0.54 1.62,1.62 v 5.296 c 0,1.08 -0.54,1.62 -1.62,1.62 h -24.53 c -1.08,0 -1.621,-0.54 -1.621,-1.62 V 73.7 c 0,-1.081 0.54,-1.621 1.62,-1.621 h 5.836 V 8.861 h -5.835 c -1.08,0 -1.621,-0.54 -1.621,-1.62 z m 84.829,64.838 h 6.808 c 1.08,0 1.62,0.54 1.62,1.62 v 5.296 c 0,1.08 -0.54,1.62 -1.62,1.62 h -25.72 c -1.08,0 -1.62,-0.54 -1.62,-1.62 V 73.7 c 0,-1.081 0.54,-1.621 1.62,-1.621 H 229.6 V 35.986 h -5.835 c -1.081,0 -1.621,-0.54 -1.621,-1.621 v -5.62 c 0,-1.08 0.54,-1.62 1.62,-1.62 h 16.318 c 1.08,0 1.62,0.54 1.62,1.62 V 72.079 Z M 226.574,11.996 c 0,-2.233 0.703,-4.088 2.107,-5.565 1.405,-1.477 3.278,-2.216 5.62,-2.216 2.341,0 4.214,0.739 5.619,2.216 1.405,1.477 2.107,3.332 2.107,5.565 0,2.233 -0.72,4.07 -2.161,5.511 -1.441,1.441 -3.332,2.161 -5.673,2.161 -2.342,0 -4.197,-0.72 -5.566,-2.16 -1.368,-1.442 -2.053,-3.279 -2.053,-5.512 z m 27.34,22.477 v -5.727 c 0,-1.081 0.54,-1.621 1.62,-1.621 h 14.697 c 0.937,0 1.513,0.54 1.73,1.62 l 0.972,6.268 c 4.034,-6.051 9.798,-9.077 17.29,-9.077 11.166,0 16.75,6.123 16.75,18.37 v 27.773 h 6.267 c 1.08,0 1.621,0.54 1.621,1.62 v 5.296 c 0,1.08 -0.54,1.62 -1.62,1.62 h -23.558 c -1.081,0 -1.621,-0.54 -1.621,-1.62 V 73.7 c 0,-1.081 0.54,-1.621 1.62,-1.621 h 5.188 v -22.37 c 0,-4.538 -0.577,-7.852 -1.73,-9.941 -1.152,-2.09 -3.53,-3.134 -7.132,-3.134 -3.602,0 -6.591,1.08 -8.969,3.242 -2.377,2.161 -3.566,4.61 -3.566,7.348 v 24.855 h 6.7 c 1.08,0 1.621,0.54 1.621,1.62 v 5.296 c 0,1.08 -0.54,1.62 -1.62,1.62 h -24.531 c -1.08,0 -1.621,-0.54 -1.621,-1.62 V 73.7 c 0,-1.081 0.54,-1.621 1.62,-1.621 h 5.728 V 35.986 h -5.835 c -1.08,0 -1.621,-0.504 -1.621,-1.513 z M 338.743,1.621 v 43.117 h 5.511 l 16.75,-16.426 c 0.792,-0.792 1.729,-1.188 2.81,-1.188 h 8.428 c 1.081,0 1.621,0.54 1.621,1.62 v 5.62 c 0,1.08 -0.54,1.62 -1.62,1.62 h -6.592 l -11.887,11.563 14.804,24.53 h 6.376 c 1.08,0 1.62,0.541 1.62,1.622 v 5.295 c 0,1.08 -0.54,1.62 -1.62,1.62 h -13.94 c -1.009,0 -1.837,-0.468 -2.486,-1.404 L 342.309,53.059 h -3.566 v 19.019 h 5.727 c 1.08,0 1.621,0.54 1.621,1.62 v 5.296 c 0,1.08 -0.54,1.62 -1.62,1.62 h -23.558 c -1.081,0 -1.621,-0.54 -1.621,-1.62 v -5.295 c 0,-1.081 0.54,-1.621 1.62,-1.621 h 5.728 V 8.754 h -5.835 c -1.081,0 -1.621,-0.54 -1.621,-1.62 V 1.621 c 0,-1.08 0.54,-1.621 1.62,-1.621 h 16.318 c 1.08,0 1.621,0.54 1.621,1.62 z m 44.846,5.62 c 9.221,-0.433 16.065,-0.65 20.532,-0.65 4.466,0 7.798,0.09 9.996,0.271 2.197,0.18 4.7,0.558 7.51,1.135 2.81,0.576 5.313,1.35 7.51,2.323 2.198,0.973 4.413,2.36 6.646,4.16 a 25.814,25.814 0 0 1 5.62,6.268 c 3.313,5.475 4.97,12.535 4.97,21.18 0,13.04 -3.602,22.747 -10.806,29.123 -7.204,6.376 -17.038,9.564 -29.501,9.564 h -22.477 c -1.08,0 -1.621,-0.54 -1.621,-1.621 v -5.295 c 0,-1.081 0.54,-1.621 1.62,-1.621 h 5.62 V 15.994 h -5.62 c -1.08,0 -1.62,-0.54 -1.62,-1.62 V 8.861 c 0,-1.08 0.54,-1.62 1.62,-1.62 z m 43.279,57.164 c 4.358,-5.187 6.538,-12.283 6.538,-21.288 0,-9.005 -2.035,-15.85 -6.106,-20.532 -4.07,-4.683 -10.428,-7.024 -19.073,-7.024 h -6.916 v 56.625 h 7.132 c 7.925,0 14.066,-2.594 18.425,-7.78 z m 28.366,14.589 v -5.295 c 0,-1.081 0.54,-1.621 1.621,-1.621 h 5.728 V 15.994 h -5.62 c -1.08,0 -1.62,-0.54 -1.62,-1.62 V 8.861 c 0,-1.153 0.54,-1.729 1.62,-1.729 8.645,-0.36 16.858,-0.54 24.639,-0.54 7.78,0 13.994,1.495 18.64,4.484 4.647,2.99 6.97,7.259 6.97,12.806 0,4.034 -1.242,7.546 -3.728,10.536 -2.485,2.99 -5.42,5.169 -8.807,6.538 5.547,0.864 9.78,2.917 12.697,6.16 2.918,3.241 4.377,7.203 4.377,11.886 0,6.124 -2.27,11.076 -6.808,14.859 -4.539,3.782 -10.554,5.925 -18.046,6.43 -3.098,0.216 -8.069,0.324 -14.913,0.324 h -15.129 c -1.08,0 -1.62,-0.54 -1.62,-1.621 z m 19.452,-32.42 v 25.72 h 4.862 c 6.34,0 11.257,-1.009 14.75,-3.026 3.495,-2.017 5.242,-5.511 5.242,-10.482 0,-8.14 -5.691,-12.211 -17.074,-12.211 h -7.78 z m 0,-31.23 v 22.262 h 4.106 c 10.662,0 15.993,-3.71 15.993,-11.13 0,-4.18 -1.297,-7.079 -3.89,-8.7 -2.594,-1.62 -6.304,-2.431 -11.13,-2.431 h -5.08 z"
     fill="#204956"
     id="path2" />
</svg>
