<?xml version="1.0" encoding="UTF-8" standalone="no"?>
<svg
   xmlns:dc="http://purl.org/dc/elements/1.1/"
   xmlns:cc="http://creativecommons.org/ns#"
   xmlns:rdf="http://www.w3.org/1999/02/22-rdf-syntax-ns#"
   xmlns:svg="http://www.w3.org/2000/svg"
   xmlns="http://www.w3.org/2000/svg"
   xmlns:sodipodi="http://sodipodi.sourceforge.net/DTD/sodipodi-0.dtd"
   xmlns:inkscape="http://www.inkscape.org/namespaces/inkscape"
   width="2499.7817"
   height="1873.7738"
   viewBox="0 0 511.9553 383.74887"
   version="1.1"
   id="svg4"
   sodipodi:docname="sass-logo.svg"
   inkscape:version="1.0.1 (1.0.1+r74)">
  <metadata
     id="metadata10">
    <rdf:RDF>
      <cc:Work
         rdf:about="">
        <dc:format>image/svg+xml</dc:format>
        <dc:type
           rdf:resource="http://purl.org/dc/dcmitype/StillImage" />
        <dc:title></dc:title>
      </cc:Work>
    </rdf:RDF>
  </metadata>
  <defs
     id="defs8" />
  <sodipodi:namedview
     pagecolor="#ffffff"
     bordercolor="#666666"
     borderopacity="1"
     objecttolerance="10"
     gridtolerance="10"
     guidetolerance="10"
     inkscape:pageopacity="0"
     inkscape:pageshadow="2"
     inkscape:window-width="1366"
     inkscape:window-height="701"
     id="namedview6"
     showgrid="false"
     inkscape:zoom="0.13653333"
     inkscape:cx="913.10641"
     inkscape:cy="934.22142"
     inkscape:window-x="0"
     inkscape:window-y="0"
     inkscape:window-maximized="1"
     inkscape:current-layer="svg4" />
  <path
     fill="#cf649a"
     d="m 440.71566,220.35939 c -17.9,0.101 -33.4,4.4 -46.4,10.801 -4.8,-9.5 -9.6,-17.801 -10.399,-24 -0.9,-7.2 -2,-11.601 -0.9,-20.2 1.099,-8.601 6.099,-20.801 6.099,-21.801 -0.101,-0.9 -1.101,-5.3 -11.4,-5.4 -10.299,-0.1 -19.2,2 -20.2,4.7 -1,2.7 -3,8.9 -4.3,15.3 -1.8,9.4 -20.6,42.7 -31.3,60.2 -3.5,-6.8 -6.5,-12.8 -7.101,-17.601 -0.899,-7.199 -2,-11.6 -0.899,-20.199 1.1,-8.601 6.1,-20.8 6.1,-21.8 -0.1,-0.9 -1.1,-5.3 -11.399,-5.4 -10.301,-0.1 -19.2,2 -20.2,4.7 -1,2.7 -2.1,9.1 -4.3,15.3 -2.101,6.2 -27.101,61.8 -33.601,76.3 -3.3,7.4 -6.199,13.3 -8.3,17.3 -2.1,4 -0.1,0.3 -0.3,0.7 -1.8,3.4 -2.8,5.3 -2.8,5.3 v 0.101 c -1.4,2.5 -2.9,4.899 -3.601,4.899 -0.5,0 -1.5,-6.7 0.2,-15.899 3.7,-19.301 12.7,-49.4 12.601,-50.5 0,-0.5 1.699,-5.801 -5.801,-8.5 -7.3,-2.7 -9.899,1.8 -10.5,1.8 -0.6,0 -1.1,1.6 -1.1,1.6 0,0 8.1,-33.899 -15.5,-33.899 -14.8,0 -35.2,16.1 -45.3,30.8 -6.4,3.5 -20,10.899 -34.4,18.8 -5.5,3 -11.2,6.2 -16.6,9.1 l -1.099,-1.202 c -28.599995,-30.5 -81.499995,-52.1 -79.299995,-93.1 0.8,-14.9 6,-54.2 101.600995,-101.799999 78.3,-39 141,-28.3 151.899,-4.5 15.5,34 -33.5,97.199999 -114.899,106.299999 -31,3.5 -47.301,-8.5 -51.4,-13 -4.3,-4.7 -4.9,-4.9 -6.5,-4 -2.6,1.4 -1,5.6 0,8.1 2.4,6.3 12.4,17.5 29.4,23.1 14.899,4.9 51.3,7.6 95.3,-9.4 49.3,-19.1 87.8,-72.099999 76.5,-116.399999 -11.5,-45.1 -86.3,-59.9 -157,-34.8 -42.101,15 -87.700995,38.4 -120.500995,69.1 C 4.1156647,117.65939 -2.0843353,149.45939 0.5156647,162.65939 c 9.101,47.1 74.0000003,77.8 99.9999953,100.5 -1.299995,0.699 -2.499995,1.399 -3.599995,2 -13,6.399 -62.5,32.3 -74.9,59.699 -14.0000003,31 2.2,53.301 13,56.301 33.4,9.3 67.599995,-7.4 86.099995,-34.9 18.399,-27.5 16.2,-63.2 7.7,-79.5 l -0.301,-0.6 10.2,-6 c 6.601,-3.9 13.101,-7.5 18.8,-10.601 -3.199,8.7 -5.5,19 -6.699,34 -1.4,17.601 5.8,40.4 15.3,49.4 4.2,3.899 9.2,4 12.3,4 11,0 16,-9.101 21.5,-20 6.8,-13.3 12.8,-28.7 12.8,-28.7 0,0 -7.5,41.7 13,41.7 7.5,0 15,-9.7 18.4,-14.7 v 0.1 c 0,0 0.2,-0.3 0.6,-1 a 36.13,36.13 0 0 0 1.2,-1.899 v -0.2 c 3,-5.2 9.7,-17.1 19.7,-36.8 12.899,-25.4 25.3,-57.2 25.3,-57.2 0,0 1.2,7.8 4.9,20.6 2.199,7.601 6.999,15.9 10.699,24 -3,4.2 -4.8,6.601 -4.8,6.601 l 0.1,0.1 c -2.399,3.2 -5.1,6.601 -7.899,10 -10.2,12.2 -22.4,26.101 -24,30.101 -1.9,4.699 -1.5,8.199 2.2,11 2.7,2 7.5,2.399 12.6,2 9.2,-0.601 15.6,-2.9 18.8,-4.301 5,-1.8 10.7,-4.5 16.2,-8.5 10,-7.399 16.1,-17.899 15.5,-31.899 -0.3,-7.7 -2.8,-15.3 -5.9,-22.5 0.9,-1.3 1.801,-2.601 2.7,-4 15.8,-23.101 28,-48.5 28,-48.5 0,0 1.2,7.8 4.9,20.6 1.899,6.5 5.7,13.601 9.1,20.601 -14.8,12.1 -24.1,26.1 -27.3,35.3 -5.9,17 -1.3,24.7 7.4,26.5 3.899,0.8 9.5,-1 13.699,-2.8 5.2,-1.7 11.5,-4.601 17.301,-8.9 10,-7.4 19.6,-17.7 19.1,-31.6 -0.3,-6.4 -2,-12.7 -4.3,-18.7 12.6,-5.2 28.899,-8.2 49.6,-5.7 44.5,5.2 53.3,33 51.601,44.6 -1.7,11.601 -11,18 -14.101,20 -3.1,1.9 -4.1,2.601 -3.8,4 0.4,2.101 1.8,2 4.5,1.601 3.7,-0.601 23.4,-9.5 24.2,-30.899 1.2,-27.504 -24.9,-57.504 -71.2,-57.205 z m -343.199995,115.7 c -14.7,16.1 -35.4,22.2 -44.2,17 -9.5,-5.5 -5.801,-29.2 12.3,-46.3 11,-10.4 25.3,-20 34.699995,-25.9 2.1,-1.3 5.3,-3.199 9.1,-5.5 0.6,-0.399 1,-0.6 1,-0.6 0.7,-0.4 1.5,-0.9 2.3,-1.4 6.7,24.4 0.3,45.8 -15.199995,62.7 z m 107.499995,-73.1 c -5.1,12.5 -15.9,44.6 -22.4,42.8 -5.601,-1.5 -9,-25.8 -1.101,-49.8 4,-12.101 12.5,-26.5 17.5,-32.101 8.101,-9 16.9,-12 19.101,-8.3 2.6,4.801 -9.9,39.601 -13.1,47.401 z m 88.7,42.4 c -2.2,1.101 -4.2,1.9 -5.1,1.301 -0.7,-0.4 0.899,-1.9 0.899,-1.9 0,0 11.1,-11.9 15.5,-17.4 2.5,-3.199 5.5,-6.899 8.7,-11.1 v 1.2 c 0.001,14.399 -13.799,23.999 -19.999,27.899 z m 68.399,-15.6 c -1.6,-1.2 -1.399,-4.9 4,-16.5 2.101,-4.6 6.9,-12.3 15.2,-19.6 1,3 1.601,5.899 1.5,8.6 -0.099,18 -12.899,24.7 -20.7,27.5 z"
     id="path2" />
</svg>
