<svg xmlns="http://www.w3.org/2000/svg" xmlns:svg="http://www.w3.org/2000/svg" id="svg19" width="978.982" height="1094.904" preserveAspectRatio="xMidYMid" version="1.1" viewBox="0 0 200.496 224.293"><metadata id="metadata23"/><defs id="defs9"><linearGradient id="a" x1="92.697" x2="92.697" y1="17.661" y2="157.956" gradientTransform="matrix(0.97317759,0,0,1.0275617,-0.06469003,7.0994435e-5)" gradientUnits="userSpaceOnUse"><stop id="stop2" offset="0%" stop-color="#97D9F6"/><stop id="stop4" offset="92.024%" stop-color="#0F80CC"/><stop id="stop6" offset="100%" stop-color="#0F80CC"/></linearGradient></defs><path id="path13" fill="#0f80cc" d="m 157.82331,9.952071 h -140.738 c -9.433,0 -17.15000003,7.718 -17.15000003,17.15 V 182.31007 c 0,9.432 7.71700003,17.15 17.15000003,17.15 h 92.693 c -1.052,-46.122 14.698,-135.629999 48.045,-189.507999 z"/><path id="path17" fill="#003b57" d="m 190.65031,4.872071 c -9.639,-8.595 -21.31,-5.14300001 -32.827,5.08 -1.71,1.518 -3.416,3.203 -5.113,5.003 -19.704,20.903 -37.994,59.62 -43.676,89.189999 2.214,4.489 3.943,10.217 5.081,14.593 0.292,1.122 0.555,2.176 0.766,3.072 0.5,2.122 0.769,3.497 0.769,3.497 0,0 -0.177,-0.668 -0.902,-2.77 -0.138,-0.403 -0.292,-0.843 -0.474,-1.361 a 15.78,15.78 0 0 0 -0.304,-0.752 c -1.285,-2.988 -4.84,-9.294 -6.405,-12.04 a 300.723,300.723 0 0 0 -3.511,10.983 c 4.517,8.265 7.27,22.429 7.27,22.429 0,0 -0.239,-0.918 -1.374,-4.122 -1.008,-2.833 -6.027,-11.628 -7.216,-13.684 -2.034,7.509 -2.842,12.578 -2.113,13.812 1.415,2.391 2.762,6.518 3.946,11.081 2.673,10.28 4.53,22.796 4.53,22.796 0,0 0.06,0.83 0.162,2.106 -0.372,8.633 -0.149,17.584 0.52,25.674 0.885,10.71 2.552,19.91 4.677,24.834 l 1.443,-0.786 c -3.12,-9.701 -4.388,-22.414 -3.833,-37.076 0.84,-22.41 5.997,-49.437 15.526,-77.606 16.1,-42.522999 38.436,-76.640999 58.879,-92.934999 -18.633,16.828 -43.851,71.297 -51.4,91.466999 -8.453,22.588 -14.443,43.784 -18.053,64.092 6.229,-19.039 26.368,-27.222 26.368,-27.222 0,0 9.877,-12.182 21.42,-29.586 -6.914,1.577 -18.268,4.277 -22.071,5.875 -5.61,2.353 -7.121,3.156 -7.121,3.156 0,0 18.17,-11.066 33.76,-16.076 21.44,-33.767999 44.799,-81.739999 21.276,-102.723999"/></svg>