<svg xmlns="http://www.w3.org/2000/svg" xmlns:svg="http://www.w3.org/2000/svg" id="Layer_1" width="2500" height="2500" version="1.1" viewBox="0 0 400 400"><metadata id="metadata13"/><style id="style2">.st0{fill:#007acc}.st1{fill:#fff}</style><path id="path4" d="M 0,200 V 0 H 400 V 400 H 0" class="st0"/><path id="path6" d="M 87.7,200.7 V 217 h 52 v 148 h 36.9 V 217 h 52 v -16 c 0,-9 0,-16.3 -0.4,-16.5 0,-0.3 -31.7,-0.4 -70.2,-0.4 l -70,0.3 v 16.4 z M 321.4,184 c 10.2,2.4 18,7 25,14.3 3.7,4 9.2,11 9.6,12.8 0,0.6 -17.3,12.3 -27.8,18.8 -0.4,0.3 -2,-1.4 -3.6,-4 -5.2,-7.4 -10.5,-10.6 -18.8,-11.2 -12,-0.8 -20,5.5 -20,16 0,3.2 0.6,5 1.8,7.6 2.7,5.5 7.7,8.8 23.2,15.6 28.6,12.3 41,20.4 48.5,32 8.5,13 10.4,33.4 4.7,48.7 -6.4,16.7 -22,28 -44.3,31.7 -7,1.2 -23,1 -30.5,-0.3 -16,-3 -31.3,-11 -40.7,-21.3 -3.7,-4 -10.8,-14.7 -10.4,-15.4 l 3.8,-2.4 15,-8.7 11.3,-6.6 2.6,3.5 c 3.3,5.2 10.7,12.2 15,14.6 13,6.7 30.4,5.8 39,-2 3.7,-3.4 5.3,-7 5.3,-12 0,-4.6 -0.7,-6.7 -3,-10.2 -3.2,-4.4 -9.6,-8 -27.6,-16 -20.7,-8.8 -29.5,-14.4 -37.7,-23 -4.7,-5.2 -9,-13.3 -11,-20 -1.5,-5.8 -2,-20 -0.6,-25.7 4.3,-20 19.4,-34 41,-38 7,-1.4 23.5,-0.8 30.4,1 z" class="st1"/></svg>