<svg xmlns="http://www.w3.org/2000/svg" xmlns:svg="http://www.w3.org/2000/svg" id="svg10" width="2429.78" height="2403.788" version="1.1" viewBox="-11.9 -2 975.702 974.832"><metadata id="metadata16"/><path id="path2" fill="#2489ca" d="m -7.4996436,337.93842 c 0,0 -24.0000004,-17.3 4.8,-40.4 l 67.0999996,-60 c 0,0 19.2,-20.2 39.500004,-2.6 l 619.2,468.8 v 224.8 c 0,0 -0.3,35.3 -45.6,31.4 z"/><path id="path4" fill="#1070b3" d="m 152.10036,482.83842 -159.6000036,145.1 c 0,0 -16.4000004,12.2 0,34 l 74.0999996,67.4 c 0,0 17.6,18.9 43.600004,-2.6 l 169.2,-128.3 z"/><path id="path6" fill="#0877b9" d="m 432.30036,484.03842 292.7,-223.5 -1.9,-223.600003 c 0,0 -12.5,-48.8 -54.2,-23.4 l -389.5,354.500003 z"/><path id="path8" fill="#3c99d4" d="m 677.50036,960.23842 c 17,17.4 37.6,11.7 37.6,11.7 l 228.1,-112.4 c 29.2,-19.9 25.1,-44.6 25.1,-44.6 v -671.2 c 0,-29.5 -30.2,-39.7 -30.2,-39.7 l -197.7,-95.3000032 c -43.2,-26.6999998 -71.5,4.8000002 -71.5,4.8000002 0,0 36.4,-26.2 54.2,23.4 V 924.43842 c 0,6.1 -1.3,12.1 -3.9,17.5 -5.2,10.5 -16.5,20.3 -43.6,16.2 z"/></svg>