<?xml version="1.0" standalone="no"?>
<!DOCTYPE svg PUBLIC "-//W3C//DTD SVG 20010904//EN"
 "http://www.w3.org/TR/2001/REC-SVG-20010904/DTD/svg10.dtd">
<svg version="1.0" xmlns="http://www.w3.org/2000/svg"
 width="500.000000pt" height="500.000000pt" viewBox="0 0 500.000000 500.000000"
 preserveAspectRatio="xMidYMid meet">
<metadata>
Created by potrace 1.11, written by Peter Selinger 2001-2013
</metadata>
<g transform="translate(0.000000,500.000000) scale(0.100000,-0.100000)"
fill="#000000" stroke="none">
<path d="M2165 4734 c-91 -18 -120 -30 -150 -66 l-25 -30 0 38 c0 38 0 38 -16
16 -9 -13 -18 -37 -21 -55 -3 -18 -6 -34 -8 -36 -2 -1 0 -14 5 -26 8 -22 7
-23 -23 -18 -24 4 -39 -1 -57 -17 -14 -12 -18 -18 -10 -15 8 4 -6 -13 -31 -37
-82 -77 -130 -213 -124 -350 2 -53 14 -264 19 -333 1 -11 -4 -39 -11 -62 -19
-66 -12 -200 13 -247 22 -44 74 -88 81 -70 2 6 10 19 17 29 12 17 15 13 31
-41 21 -72 46 -116 97 -170 49 -51 55 -90 56 -334 1 -208 -10 -279 -49 -316
-21 -20 -32 -25 -40 -17 -8 8 -5 15 8 24 37 26 37 39 1 27 -34 -12 -46 -20
-78 -52 -19 -19 -19 -20 -1 -35 36 -29 8 -54 -153 -135 -213 -107 -236 -121
-370 -222 -155 -116 -215 -192 -246 -313 -34 -131 -45 -262 -44 -506 2 -246 9
-361 24 -400 20 -52 18 -489 -3 -630 -29 -193 -29 -178 -2 -171 17 4 24 1 28
-14 3 -10 2 -21 -1 -25 -3 -3 -7 -22 -9 -43 -2 -20 -5 -46 -6 -57 -2 -20 5
-20 1528 -23 l1530 -2 -1 112 c-1 134 2 146 30 150 16 2 21 10 22 33 0 17 -3
37 -7 46 -9 18 -25 115 -34 204 -3 33 -8 78 -10 100 -17 151 -33 575 -40 1085
-5 350 -18 472 -61 549 -35 65 -159 186 -264 258 -59 39 -97 50 -200 56 -114
7 -271 57 -435 139 -49 25 -75 31 -140 34 -70 3 -83 6 -101 28 -40 46 -60 178
-69 467 -4 134 9 161 95 203 70 34 96 67 124 160 21 69 16 174 -8 191 -10 8
-23 12 -29 8 -6 -4 -7 -1 -2 6 4 7 9 54 11 104 2 51 9 129 15 173 15 101 6
143 -53 245 -23 41 -49 94 -57 118 -15 39 -21 45 -61 55 -28 7 -84 40 -145 85
-55 40 -111 79 -125 86 -86 45 -285 63 -415 39z"/>
<path d="M4173 1733 c-3 -7 0 -20 7 -28 15 -18 39 1 33 26 -5 19 -33 21 -40 2z"/>
</g>
</svg>
